{"title":"Beyond Borders 2003 BDRip 720p Eng Ger Hun Ita Tur [mkvonly]","uid":6512809,"size":4412410280,"categoryP":"video","categoryS":"hd___movies","magnet":"?xt=urn:btih:d6c4312e8a3d6772473d86a002e08dbe52c20a92&amp;dn=Beyond+Borders+2003+BDRip+720p+Eng+Ger+Hun+Ita+Tur+%5Bmkvonly%5D&amp;tr=udp%3A%2F%2Ftracker.openbittorrent.com%3A80&amp;tr=udp%3A%2F%2Fopen.demonii.com%3A1337&amp;tr=udp%3A%2F%2Ftracker.coppersurfer.tk%3A6969&amp;tr=udp%3A%2F%2Fexodus.desync.com%3A6969","seeders":2,"leechers":0,"uploader":"FatFreddy69","files":-1,"time":1309702927,"description":"Beyond Borders 2003 BDRip 720p Eng Ger Hun Ita Tur [mkvonly]\n\nFormat                           : Matroska\nFile size                        : 4.08 GiB\nDuration                         : 2h 0mn ( 6min_22s credits removed)\nDisplay aspect ratio             : 1289 x 544 (2.35:1)\nFrame rate                       : 23.976 fps\nTitle                            : Beyond Borders 2003 BDRip 720p multisub [mkvonly]\nWriting library                  : x264 core 88\nVideo; size 2.35 GB (54%), bit rate 2.5 MB\nEncoding settings                : \ncabac=1 / ref=5 / me=umh / subme=9 / me_range=32 / trellis=2 /\n 8x8dct=1 / bframes=5 / b_pyramid=2 / rc=2pass / bitrate=2500\n\nAudio #1\nBit rate                         : 640 Kbps\nStream size                      : 550 MiB (13%)\nLanguage                         : English\n\nAudio #2\nCodec ID                         : A_AAC 2ch\nStream size                      : 137 MiB (3%)\nLanguage                         : English Commentary\n\nAudio #3\nBit rate                         : 448 Kbps\nStream size                      : 385 MiB (9%)\nLanguage                         : German\n\nAudio #4\nBit rate                         : 448 Kbps\nStream size                      : 385 MiB (9%)\nLanguage                         : Hungarian\n\nAudio #5\nCodec ID                         : A_AAC 2ch\nStream size                      : 137 MiB (3%)\nLanguage                         : Italian\n\nAudio #6\nBit rate                         : 448 Kbps\nStream size                      : 385 MiB (9%)\nLanguage                         : Turkish\n\nSubtitles:\nEnglish + commentary, Arabic, Bulgarian, Danish, Dutch,\n Finnish, German, German + commentary, Hungarian, \nIcelandic, Norwegian, Polish, Romanian, Swedish, Turkish\n\ncut ending soundtrack AC3 640kbps, 6min_22s, 29 MB\n &lt;a href=&quot;\nhttp://www.bilderkiste.org/show/original/8130969319525/1.jpg&quot; rel=&quot;nofollow&quot; target=&quot;_NEW&quot;&gt;\nhttp://www.bilderkiste.org/show/original/8130969319525/1.jpg&lt;/a&gt;\n &lt;a href=&quot;\nhttp://www.bilderkiste.org/show/original/4130969329574/2.jpg&quot; rel=&quot;nofollow&quot; target=&quot;_NEW&quot;&gt;\nhttp://www.bilderkiste.org/show/original/4130969329574/2.jpg&lt;/a&gt;\n &lt;a href=&quot;\nhttp://www.bilderkiste.org/show/original/0130969331723/3.jpg&quot; rel=&quot;nofollow&quot; target=&quot;_NEW&quot;&gt;\nhttp://www.bilderkiste.org/show/original/0130969331723/3.jpg&lt;/a&gt;\n\nThe video is only 54% so here you go forced to download the optional files that you don't want. Take that!\n\nAs answer to all the bitching comments I got for having the tracks  separate (demuxed) and so giving you the option to download only the track(s) you want.\n\n..and those majesties who were happy with the torrents with tracks demuxed didn't take the huge effort to bitch back the bitches (LOL) in comments.\n\nSo the poor Italians for instance with their slow internet will have to download 4 GB instead of 2.5 GB with this torrent.\n\nThis is the great thing about mkv, unlike the dvd you can make your own &quot;salad-plate&quot; (like in a salad-bar), if you're not too lazy.\n\nI only seed Ratio 2.0 then delete my torrent and re-mux my file so don't ask for reseed because I won't be able to and all the others won't care. \n(I'm curious how long this torrent will survive.)\n\n~~~~~~~~~~~~~~~~~~~~~~~~~~~~~~~~~~~~~~~~~~~~~~~~~~~~~~~~~~~~~~~~~~~~~~~~~~~~~~~","torrent":{"xt":"urn:btih:d6c4312e8a3d6772473d86a002e08dbe52c20a92","amp;dn":"Beyond+Borders+2003+BDRip+720p+Eng+Ger+Hun+Ita+Tur+%5Bmkvonly%5D","amp;tr":["udp%3A%2F%2Ftracker.openbittorrent.com%3A80","udp%3A%2F%2Fopen.demonii.com%3A1337","udp%3A%2F%2Ftracker.coppersurfer.tk%3A6969","udp%3A%2F%2Fexodus.desync.com%3A6969"],"infoHash":"d6c4312e8a3d6772473d86a002e08dbe52c20a92","infoHashBuffer":{"type":"Buffer","data":[214,196,49,46,138,61,103,114,71,61,134,160,2,224,141,190,82,194,10,146]},"announce":[],"urlList":[]}}